<mxfile host="app.diagrams.net" modified="2022-12-15T20:32:58.211Z" agent="5.0 (Macintosh; Intel Mac OS X 10_15_7) AppleWebKit/605.1.15 (KHTML, like Gecko) Version/16.1 Safari/605.1.15" etag="S_yh7stVhOAtMSLZtTIO" version="20.7.3" type="github">
  <diagram id="JlM-V_NoU1FeULhczOWX" name="Страница 1">
    <mxGraphModel dx="1443" dy="985" grid="0" gridSize="10" guides="1" tooltips="1" connect="1" arrows="1" fold="1" page="0" pageScale="1" pageWidth="827" pageHeight="1169" math="0" shadow="0">
      <root>
        <mxCell id="0" />
        <mxCell id="1" parent="0" />
        <mxCell id="flnWNuCMUBUqU85HIkac-3" value="" style="verticalLabelPosition=bottom;verticalAlign=top;html=1;shadow=0;dashed=0;strokeWidth=1;shape=mxgraph.android.phone2;strokeColor=#FFFFFF;labelBackgroundColor=none;fillColor=#182E3E;fontColor=#FFFFFF;" parent="1" vertex="1">
          <mxGeometry x="10" y="10" width="200" height="690" as="geometry" />
        </mxCell>
        <mxCell id="flnWNuCMUBUqU85HIkac-5" value="" style="rounded=0;whiteSpace=wrap;html=1;strokeColor=#6c8ebf;fillColor=#dae8fc;" parent="1" vertex="1">
          <mxGeometry x="20" y="605.13" width="180" height="30" as="geometry" />
        </mxCell>
        <mxCell id="flnWNuCMUBUqU85HIkac-6" value="" style="html=1;verticalLabelPosition=bottom;align=center;labelBackgroundColor=#ffffff;verticalAlign=top;strokeWidth=2;shadow=0;dashed=0;shape=mxgraph.ios7.icons.home;fillColor=#f5f5f5;fontColor=#333333;strokeColor=#666666;" parent="1" vertex="1">
          <mxGeometry x="30" y="612.25" width="20" height="12.75" as="geometry" />
        </mxCell>
        <mxCell id="flnWNuCMUBUqU85HIkac-7" value="" style="html=1;verticalLabelPosition=bottom;align=center;labelBackgroundColor=#ffffff;verticalAlign=top;strokeWidth=2;strokeColor=#666666;shadow=0;dashed=0;shape=mxgraph.ios7.icons.envelope_(empty);fontColor=#333333;fillColor=#f5f5f5;" parent="1" vertex="1">
          <mxGeometry x="64" y="612.25" width="14" height="12.75" as="geometry" />
        </mxCell>
        <mxCell id="flnWNuCMUBUqU85HIkac-11" value="" style="html=1;verticalLabelPosition=bottom;align=center;labelBackgroundColor=#ffffff;verticalAlign=top;strokeWidth=2;strokeColor=#666666;shadow=0;dashed=0;shape=mxgraph.ios7.icons.user;fontColor=#333333;fillColor=#f5f5f5;" parent="1" vertex="1">
          <mxGeometry x="170" y="610.13" width="20" height="14.87" as="geometry" />
        </mxCell>
        <mxCell id="flnWNuCMUBUqU85HIkac-12" value="&lt;p&gt;&lt;font color=&quot;#000000&quot;&gt;&lt;span style=&quot;caret-color: rgb(0, 0, 0); font-size: 7px;&quot;&gt;Главная&lt;/span&gt;&lt;/font&gt;&lt;/p&gt;" style="text;html=1;strokeColor=none;fillColor=none;align=center;verticalAlign=middle;whiteSpace=wrap;rounded=0;fontColor=#FFFFFF;" parent="1" vertex="1">
          <mxGeometry x="20" y="623.84" width="40" height="10" as="geometry" />
        </mxCell>
        <mxCell id="flnWNuCMUBUqU85HIkac-13" value="&lt;font face=&quot;Helvetica&quot;&gt;Сообщение&lt;/font&gt;" style="text;html=1;strokeColor=none;fillColor=none;align=center;verticalAlign=middle;whiteSpace=wrap;rounded=0;labelBackgroundColor=none;fontFamily=Tahoma;fontSize=7;fontColor=#000000;" parent="1" vertex="1">
          <mxGeometry x="50" y="615" width="50" height="30" as="geometry" />
        </mxCell>
        <mxCell id="flnWNuCMUBUqU85HIkac-15" value="Создать&amp;nbsp;" style="text;html=1;strokeColor=none;fillColor=none;align=center;verticalAlign=middle;whiteSpace=wrap;rounded=0;labelBackgroundColor=none;fontFamily=Helvetica;fontSize=7;fontColor=#000000;" parent="1" vertex="1">
          <mxGeometry x="85" y="615" width="50" height="20" as="geometry" />
        </mxCell>
        <mxCell id="flnWNuCMUBUqU85HIkac-16" value="Профиль" style="text;html=1;strokeColor=none;fillColor=none;align=center;verticalAlign=middle;whiteSpace=wrap;rounded=0;labelBackgroundColor=none;fontFamily=Helvetica;fontSize=7;fontColor=#000000;" parent="1" vertex="1">
          <mxGeometry x="150" y="615" width="60" height="30" as="geometry" />
        </mxCell>
        <mxCell id="flnWNuCMUBUqU85HIkac-17" value="" style="html=1;verticalLabelPosition=bottom;align=center;labelBackgroundColor=#ffffff;verticalAlign=top;strokeWidth=2;strokeColor=#666666;shadow=0;dashed=0;shape=mxgraph.ios7.icons.add;fontFamily=Helvetica;fontSize=7;fontColor=#333333;fillColor=#f5f5f5;" parent="1" vertex="1">
          <mxGeometry x="95" y="590" width="30" height="30" as="geometry" />
        </mxCell>
        <mxCell id="flnWNuCMUBUqU85HIkac-18" value="" style="html=1;verticalLabelPosition=bottom;align=center;labelBackgroundColor=#ffffff;verticalAlign=top;strokeWidth=2;strokeColor=#666666;shadow=0;dashed=0;shape=mxgraph.ios7.icons.bag;fontFamily=Helvetica;fontSize=7;fontColor=#333333;fillColor=#f5f5f5;" parent="1" vertex="1">
          <mxGeometry x="135" y="611.28" width="15" height="12.56" as="geometry" />
        </mxCell>
        <mxCell id="flnWNuCMUBUqU85HIkac-19" value="Лента" style="text;html=1;align=center;verticalAlign=middle;whiteSpace=wrap;rounded=0;labelBackgroundColor=none;fontFamily=Helvetica;fontSize=7;fontColor=#000000;" parent="1" vertex="1">
          <mxGeometry x="125" y="623.84" width="40" height="10" as="geometry" />
        </mxCell>
        <mxCell id="flnWNuCMUBUqU85HIkac-20" value="поиск" style="rounded=1;whiteSpace=wrap;html=1;labelBackgroundColor=none;strokeColor=#666666;fontFamily=Helvetica;fontSize=7;fontColor=#333333;fillColor=#f5f5f5;align=center;" parent="1" vertex="1">
          <mxGeometry x="50" y="70" width="120" height="30" as="geometry" />
        </mxCell>
        <mxCell id="flnWNuCMUBUqU85HIkac-21" value="" style="html=1;verticalLabelPosition=bottom;align=center;labelBackgroundColor=#ffffff;verticalAlign=top;strokeWidth=2;strokeColor=#666666;shadow=0;dashed=0;shape=mxgraph.ios7.icons.looking_glass;fontFamily=Helvetica;fontSize=7;fontColor=#333333;fillColor=#f5f5f5;" parent="1" vertex="1">
          <mxGeometry x="60" y="80" width="10" height="10" as="geometry" />
        </mxCell>
        <mxCell id="flnWNuCMUBUqU85HIkac-22" value="" style="html=1;verticalLabelPosition=bottom;align=center;labelBackgroundColor=#ffffff;verticalAlign=top;strokeWidth=2;strokeColor=#666666;shadow=0;dashed=0;shape=mxgraph.ios7.icons.bell;fontFamily=Helvetica;fontSize=7;fontColor=#333333;fillColor=#f5f5f5;" parent="1" vertex="1">
          <mxGeometry x="180" y="75" width="20" height="20" as="geometry" />
        </mxCell>
        <mxCell id="flnWNuCMUBUqU85HIkac-23" value="" style="html=1;verticalLabelPosition=bottom;align=center;labelBackgroundColor=#ffffff;verticalAlign=top;strokeWidth=2;strokeColor=#666666;shadow=0;dashed=0;shape=mxgraph.ios7.icons.options;pointerEvents=1;fontFamily=Helvetica;fontSize=7;fontColor=#333333;fillColor=#f5f5f5;" parent="1" vertex="1">
          <mxGeometry x="20" y="75" width="20" height="20" as="geometry" />
        </mxCell>
        <mxCell id="flnWNuCMUBUqU85HIkac-25" value="Собаки" style="rounded=1;whiteSpace=wrap;html=1;labelBackgroundColor=none;strokeColor=#666666;fontFamily=Helvetica;fontSize=7;fontColor=#333333;fillColor=#f5f5f5;" parent="1" vertex="1">
          <mxGeometry x="20" y="130" width="50" height="20" as="geometry" />
        </mxCell>
        <mxCell id="flnWNuCMUBUqU85HIkac-26" value="Категория" style="text;html=1;strokeColor=none;fillColor=none;align=center;verticalAlign=middle;whiteSpace=wrap;rounded=0;labelBackgroundColor=none;fontFamily=Helvetica;fontSize=10;fontColor=#000000;strokeWidth=3;fontStyle=1" parent="1" vertex="1">
          <mxGeometry x="20" y="100" width="60" height="30" as="geometry" />
        </mxCell>
        <mxCell id="flnWNuCMUBUqU85HIkac-27" value="Кошки" style="rounded=1;whiteSpace=wrap;html=1;labelBackgroundColor=none;strokeColor=#666666;fontFamily=Helvetica;fontSize=7;fontColor=#333333;fillColor=#f5f5f5;" parent="1" vertex="1">
          <mxGeometry x="75" y="130" width="50" height="20" as="geometry" />
        </mxCell>
        <mxCell id="flnWNuCMUBUqU85HIkac-28" value="Сельхоз" style="rounded=1;whiteSpace=wrap;html=1;labelBackgroundColor=none;strokeColor=#666666;fontFamily=Helvetica;fontSize=7;fontColor=#333333;fillColor=#f5f5f5;" parent="1" vertex="1">
          <mxGeometry x="130" y="130" width="50" height="20" as="geometry" />
        </mxCell>
        <mxCell id="flnWNuCMUBUqU85HIkac-30" value="Деревья" style="rounded=1;whiteSpace=wrap;html=1;labelBackgroundColor=none;strokeColor=#666666;fontFamily=Helvetica;fontSize=7;fontColor=#333333;fillColor=#f5f5f5;" parent="1" vertex="1">
          <mxGeometry x="20" y="155" width="50" height="20" as="geometry" />
        </mxCell>
        <mxCell id="flnWNuCMUBUqU85HIkac-31" value="Кустарник" style="rounded=1;whiteSpace=wrap;html=1;labelBackgroundColor=none;strokeColor=#666666;fontFamily=Helvetica;fontSize=7;fontColor=#333333;fillColor=#f5f5f5;" parent="1" vertex="1">
          <mxGeometry x="75" y="155" width="50" height="20" as="geometry" />
        </mxCell>
        <mxCell id="flnWNuCMUBUqU85HIkac-32" value="Травы" style="rounded=1;whiteSpace=wrap;html=1;labelBackgroundColor=none;strokeColor=#666666;fontFamily=Helvetica;fontSize=7;fontColor=#333333;fillColor=#f5f5f5;" parent="1" vertex="1">
          <mxGeometry x="130" y="155" width="50" height="20" as="geometry" />
        </mxCell>
        <mxCell id="flnWNuCMUBUqU85HIkac-35" value="РЕКЛАМА" style="rounded=1;whiteSpace=wrap;html=1;labelBackgroundColor=none;strokeColor=#666666;strokeWidth=3;fontFamily=Helvetica;fontSize=10;fontColor=#333333;fillColor=#f5f5f5;" parent="1" vertex="1">
          <mxGeometry x="20" y="190" width="90" height="60" as="geometry" />
        </mxCell>
        <mxCell id="flnWNuCMUBUqU85HIkac-36" value="РЕКЛАМА" style="rounded=1;whiteSpace=wrap;html=1;labelBackgroundColor=none;strokeColor=#666666;strokeWidth=3;fontFamily=Helvetica;fontSize=10;fontColor=#333333;fillColor=#f5f5f5;" parent="1" vertex="1">
          <mxGeometry x="110" y="190" width="90" height="60" as="geometry" />
        </mxCell>
        <mxCell id="flnWNuCMUBUqU85HIkac-37" value="Акции &amp;nbsp;и скидки" style="text;html=1;strokeColor=none;fillColor=none;align=center;verticalAlign=middle;whiteSpace=wrap;rounded=0;labelBackgroundColor=none;strokeWidth=3;fontFamily=Helvetica;fontSize=6;fontColor=#000000;" parent="1" vertex="1">
          <mxGeometry x="140" y="260" width="50" height="20" as="geometry" />
        </mxCell>
        <mxCell id="flnWNuCMUBUqU85HIkac-38" value="Новинки" style="text;html=1;strokeColor=none;fillColor=none;align=center;verticalAlign=middle;whiteSpace=wrap;rounded=0;labelBackgroundColor=none;strokeWidth=3;fontFamily=Helvetica;fontSize=6;fontColor=#000000;" parent="1" vertex="1">
          <mxGeometry x="80" y="260" width="50" height="20" as="geometry" />
        </mxCell>
        <mxCell id="flnWNuCMUBUqU85HIkac-39" value="Популярные&amp;nbsp;" style="text;html=1;strokeColor=none;fillColor=none;align=center;verticalAlign=middle;whiteSpace=wrap;rounded=0;labelBackgroundColor=none;strokeWidth=3;fontFamily=Helvetica;fontSize=6;fontColor=#000000;" parent="1" vertex="1">
          <mxGeometry x="20" y="260" width="50" height="20" as="geometry" />
        </mxCell>
        <mxCell id="flnWNuCMUBUqU85HIkac-41" value="" style="line;strokeWidth=4;html=1;perimeter=backbonePerimeter;points=[];outlineConnect=0;labelBackgroundColor=none;strokeColor=#000000;fontFamily=Helvetica;fontSize=6;fontColor=#000000;fillColor=#182E3E;fillStyle=solid;" parent="1" vertex="1">
          <mxGeometry x="20" y="280" width="50" height="10" as="geometry" />
        </mxCell>
        <mxCell id="flnWNuCMUBUqU85HIkac-43" value="Товар" style="rounded=1;whiteSpace=wrap;html=1;labelBackgroundColor=none;fillStyle=solid;strokeColor=#666666;strokeWidth=3;fontFamily=Helvetica;fontSize=6;fontColor=#333333;fillColor=#f5f5f5;" parent="1" vertex="1">
          <mxGeometry x="20" y="290" width="90" height="100" as="geometry" />
        </mxCell>
        <mxCell id="flnWNuCMUBUqU85HIkac-44" value="Товар" style="rounded=1;whiteSpace=wrap;html=1;labelBackgroundColor=none;fillStyle=solid;strokeColor=#666666;strokeWidth=3;fontFamily=Helvetica;fontSize=6;fontColor=#333333;fillColor=#f5f5f5;" parent="1" vertex="1">
          <mxGeometry x="110" y="290" width="90" height="100" as="geometry" />
        </mxCell>
        <mxCell id="flnWNuCMUBUqU85HIkac-45" value="Товар" style="rounded=1;whiteSpace=wrap;html=1;labelBackgroundColor=none;fillStyle=solid;strokeColor=#666666;strokeWidth=3;fontFamily=Helvetica;fontSize=6;fontColor=#333333;fillColor=#f5f5f5;" parent="1" vertex="1">
          <mxGeometry x="20" y="390" width="90" height="100" as="geometry" />
        </mxCell>
        <mxCell id="flnWNuCMUBUqU85HIkac-46" value="Товар" style="rounded=1;whiteSpace=wrap;html=1;labelBackgroundColor=none;fillStyle=solid;strokeColor=#666666;strokeWidth=3;fontFamily=Helvetica;fontSize=6;fontColor=#333333;fillColor=#f5f5f5;" parent="1" vertex="1">
          <mxGeometry x="110" y="390" width="90" height="100" as="geometry" />
        </mxCell>
        <mxCell id="flnWNuCMUBUqU85HIkac-47" value="Товар" style="rounded=1;whiteSpace=wrap;html=1;labelBackgroundColor=none;fillStyle=solid;strokeColor=#666666;strokeWidth=3;fontFamily=Helvetica;fontSize=6;fontColor=#333333;fillColor=#f5f5f5;" parent="1" vertex="1">
          <mxGeometry x="20" y="490" width="90" height="100" as="geometry" />
        </mxCell>
        <mxCell id="flnWNuCMUBUqU85HIkac-48" value="Товар" style="rounded=1;whiteSpace=wrap;html=1;labelBackgroundColor=none;fillStyle=solid;strokeColor=#666666;strokeWidth=3;fontFamily=Helvetica;fontSize=6;fontColor=#333333;fillColor=#f5f5f5;" parent="1" vertex="1">
          <mxGeometry x="110" y="490" width="90" height="100" as="geometry" />
        </mxCell>
        <mxCell id="flnWNuCMUBUqU85HIkac-50" value="Посмотреть все" style="text;html=1;align=center;verticalAlign=middle;resizable=0;points=[];autosize=1;strokeColor=none;fillColor=none;fontSize=6;fontFamily=Helvetica;fontColor=#000000;" parent="1" vertex="1">
          <mxGeometry x="130" y="105" width="70" height="20" as="geometry" />
        </mxCell>
        <mxCell id="6RNCGOG-WSd5X_5wuMal-1" value="Главная&amp;nbsp;" style="text;html=1;align=center;verticalAlign=middle;resizable=0;points=[];autosize=1;strokeColor=none;fillColor=none;fontSize=10;fontFamily=Helvetica;fontColor=#000000;" vertex="1" parent="1">
          <mxGeometry x="76" y="700" width="59" height="24" as="geometry" />
        </mxCell>
        <mxCell id="6RNCGOG-WSd5X_5wuMal-2" value="" style="verticalLabelPosition=bottom;verticalAlign=top;html=1;shadow=0;dashed=0;strokeWidth=1;shape=mxgraph.android.phone2;strokeColor=#FFFFFF;labelBackgroundColor=none;fillColor=#182E3E;fontColor=#FFFFFF;" vertex="1" parent="1">
          <mxGeometry x="220" y="10" width="200" height="440" as="geometry" />
        </mxCell>
        <mxCell id="6RNCGOG-WSd5X_5wuMal-16" value="" style="shape=singleArrow;direction=west;whiteSpace=wrap;html=1;labelBackgroundColor=none;fillStyle=solid;strokeColor=#666666;strokeWidth=3;fontFamily=Helvetica;fontSize=6;fontColor=#333333;fillColor=#f5f5f5;" vertex="1" parent="1">
          <mxGeometry x="230" y="60" width="15" height="10" as="geometry" />
        </mxCell>
        <mxCell id="6RNCGOG-WSd5X_5wuMal-17" value="поиск" style="rounded=1;whiteSpace=wrap;html=1;labelBackgroundColor=none;strokeColor=#666666;fontFamily=Helvetica;fontSize=7;fontColor=#333333;fillColor=#f5f5f5;align=center;" vertex="1" parent="1">
          <mxGeometry x="250" y="50" width="160" height="30" as="geometry" />
        </mxCell>
        <mxCell id="6RNCGOG-WSd5X_5wuMal-18" value="" style="html=1;verticalLabelPosition=bottom;align=center;labelBackgroundColor=#ffffff;verticalAlign=top;strokeWidth=2;strokeColor=#666666;shadow=0;dashed=0;shape=mxgraph.ios7.icons.looking_glass;fontFamily=Helvetica;fontSize=7;fontColor=#333333;fillColor=#f5f5f5;" vertex="1" parent="1">
          <mxGeometry x="260" y="60" width="10" height="10" as="geometry" />
        </mxCell>
        <mxCell id="6RNCGOG-WSd5X_5wuMal-19" value="" style="html=1;verticalLabelPosition=bottom;align=center;labelBackgroundColor=#ffffff;verticalAlign=top;strokeWidth=2;strokeColor=#666666;shadow=0;dashed=0;shape=mxgraph.ios7.icons.camera;fillStyle=solid;fontFamily=Helvetica;fontSize=6;fontColor=#333333;fillColor=#f5f5f5;" vertex="1" parent="1">
          <mxGeometry x="380" y="58.15" width="23.75" height="13.7" as="geometry" />
        </mxCell>
        <mxCell id="6RNCGOG-WSd5X_5wuMal-20" value="" style="verticalLabelPosition=bottom;verticalAlign=top;html=1;shadow=0;dashed=0;strokeWidth=1;shape=mxgraph.ios.iKeybLett;sketch=0;labelBackgroundColor=none;fillStyle=solid;strokeColor=#000000;fontFamily=Helvetica;fontSize=6;fontColor=#000000;fillColor=#182E3E;" vertex="1" parent="1">
          <mxGeometry x="229.75" y="310" width="180.25" height="100" as="geometry" />
        </mxCell>
        <mxCell id="6RNCGOG-WSd5X_5wuMal-27" value="Собаки" style="rounded=1;whiteSpace=wrap;html=1;labelBackgroundColor=none;strokeColor=#666666;fontFamily=Helvetica;fontSize=7;fontColor=#333333;fillColor=#f5f5f5;" vertex="1" parent="1">
          <mxGeometry x="230" y="130" width="50" height="20" as="geometry" />
        </mxCell>
        <mxCell id="6RNCGOG-WSd5X_5wuMal-28" value="Категория" style="text;html=1;strokeColor=none;fillColor=none;align=center;verticalAlign=middle;whiteSpace=wrap;rounded=0;labelBackgroundColor=none;fontFamily=Helvetica;fontSize=10;fontColor=#000000;strokeWidth=3;fontStyle=1" vertex="1" parent="1">
          <mxGeometry x="235" y="95" width="60" height="30" as="geometry" />
        </mxCell>
        <mxCell id="6RNCGOG-WSd5X_5wuMal-29" value="Кошки" style="rounded=1;whiteSpace=wrap;html=1;labelBackgroundColor=none;strokeColor=#666666;fontFamily=Helvetica;fontSize=7;fontColor=#333333;fillColor=#f5f5f5;" vertex="1" parent="1">
          <mxGeometry x="290" y="130" width="50" height="20" as="geometry" />
        </mxCell>
        <mxCell id="6RNCGOG-WSd5X_5wuMal-30" value="Сельхоз" style="rounded=1;whiteSpace=wrap;html=1;labelBackgroundColor=none;strokeColor=#666666;fontFamily=Helvetica;fontSize=7;fontColor=#333333;fillColor=#f5f5f5;" vertex="1" parent="1">
          <mxGeometry x="350" y="130" width="50" height="20" as="geometry" />
        </mxCell>
        <mxCell id="6RNCGOG-WSd5X_5wuMal-31" value="Деревья" style="rounded=1;whiteSpace=wrap;html=1;labelBackgroundColor=none;strokeColor=#666666;fontFamily=Helvetica;fontSize=7;fontColor=#333333;fillColor=#f5f5f5;" vertex="1" parent="1">
          <mxGeometry x="230" y="240" width="50" height="20" as="geometry" />
        </mxCell>
        <mxCell id="6RNCGOG-WSd5X_5wuMal-32" value="Кустарник" style="rounded=1;whiteSpace=wrap;html=1;labelBackgroundColor=none;strokeColor=#666666;fontFamily=Helvetica;fontSize=7;fontColor=#333333;fillColor=#f5f5f5;" vertex="1" parent="1">
          <mxGeometry x="290" y="240" width="50" height="20" as="geometry" />
        </mxCell>
        <mxCell id="6RNCGOG-WSd5X_5wuMal-33" value="Травы" style="rounded=1;whiteSpace=wrap;html=1;labelBackgroundColor=none;strokeColor=#666666;fontFamily=Helvetica;fontSize=7;fontColor=#333333;fillColor=#f5f5f5;" vertex="1" parent="1">
          <mxGeometry x="350" y="240" width="50" height="20" as="geometry" />
        </mxCell>
        <mxCell id="6RNCGOG-WSd5X_5wuMal-34" value="Рептилии" style="rounded=1;whiteSpace=wrap;html=1;labelBackgroundColor=none;strokeColor=#666666;fontFamily=Helvetica;fontSize=7;fontColor=#333333;fillColor=#f5f5f5;" vertex="1" parent="1">
          <mxGeometry x="230" y="155" width="50" height="20" as="geometry" />
        </mxCell>
        <mxCell id="6RNCGOG-WSd5X_5wuMal-35" value="Грызуны" style="rounded=1;whiteSpace=wrap;html=1;labelBackgroundColor=none;strokeColor=#666666;fontFamily=Helvetica;fontSize=7;fontColor=#333333;fillColor=#f5f5f5;" vertex="1" parent="1">
          <mxGeometry x="290" y="155" width="50" height="20" as="geometry" />
        </mxCell>
        <mxCell id="6RNCGOG-WSd5X_5wuMal-36" value="Птицы" style="rounded=1;whiteSpace=wrap;html=1;labelBackgroundColor=none;strokeColor=#666666;fontFamily=Helvetica;fontSize=7;fontColor=#333333;fillColor=#f5f5f5;" vertex="1" parent="1">
          <mxGeometry x="350" y="155" width="50" height="20" as="geometry" />
        </mxCell>
        <mxCell id="6RNCGOG-WSd5X_5wuMal-37" value="Корм" style="rounded=1;whiteSpace=wrap;html=1;labelBackgroundColor=none;strokeColor=#666666;fontFamily=Helvetica;fontSize=7;fontColor=#333333;fillColor=#f5f5f5;" vertex="1" parent="1">
          <mxGeometry x="250" y="185" width="50" height="20" as="geometry" />
        </mxCell>
        <mxCell id="6RNCGOG-WSd5X_5wuMal-38" value="Вет - Аптека" style="rounded=1;whiteSpace=wrap;html=1;labelBackgroundColor=none;strokeColor=#666666;fontFamily=Helvetica;fontSize=7;fontColor=#333333;fillColor=#f5f5f5;" vertex="1" parent="1">
          <mxGeometry x="320" y="185" width="50" height="20" as="geometry" />
        </mxCell>
        <mxCell id="6RNCGOG-WSd5X_5wuMal-39" value="Животные" style="text;html=1;align=center;verticalAlign=middle;resizable=0;points=[];autosize=1;strokeColor=none;fillColor=none;fontSize=6;fontFamily=Helvetica;fontColor=#000000;" vertex="1" parent="1">
          <mxGeometry x="340" y="100" width="50" height="20" as="geometry" />
        </mxCell>
        <mxCell id="6RNCGOG-WSd5X_5wuMal-40" value="Категории" style="text;html=1;strokeColor=none;fillColor=none;align=center;verticalAlign=middle;whiteSpace=wrap;rounded=0;labelBackgroundColor=none;fontFamily=Helvetica;fontSize=10;fontColor=#000000;strokeWidth=3;" vertex="1" parent="1">
          <mxGeometry x="235" y="205" width="60" height="30" as="geometry" />
        </mxCell>
        <mxCell id="6RNCGOG-WSd5X_5wuMal-41" value="Растение" style="text;html=1;align=center;verticalAlign=middle;resizable=0;points=[];autosize=1;strokeColor=none;fillColor=none;fontSize=6;fontFamily=Helvetica;fontColor=#000000;" vertex="1" parent="1">
          <mxGeometry x="350" y="210" width="50" height="20" as="geometry" />
        </mxCell>
        <mxCell id="6RNCGOG-WSd5X_5wuMal-42" value="Удобрение" style="rounded=1;whiteSpace=wrap;html=1;labelBackgroundColor=none;strokeColor=#666666;fontFamily=Helvetica;fontSize=7;fontColor=#333333;fillColor=#f5f5f5;" vertex="1" parent="1">
          <mxGeometry x="230" y="270" width="50" height="20" as="geometry" />
        </mxCell>
        <mxCell id="6RNCGOG-WSd5X_5wuMal-43" value="Горшки" style="rounded=1;whiteSpace=wrap;html=1;labelBackgroundColor=none;strokeColor=#666666;fontFamily=Helvetica;fontSize=7;fontColor=#333333;fillColor=#f5f5f5;" vertex="1" parent="1">
          <mxGeometry x="290" y="270" width="50" height="20" as="geometry" />
        </mxCell>
        <mxCell id="6RNCGOG-WSd5X_5wuMal-44" value="Лекарство" style="rounded=1;whiteSpace=wrap;html=1;labelBackgroundColor=none;strokeColor=#666666;fontFamily=Helvetica;fontSize=7;fontColor=#333333;fillColor=#f5f5f5;" vertex="1" parent="1">
          <mxGeometry x="350" y="270" width="50" height="20" as="geometry" />
        </mxCell>
        <mxCell id="6RNCGOG-WSd5X_5wuMal-45" value="Поиск" style="text;html=1;align=center;verticalAlign=middle;resizable=0;points=[];autosize=1;strokeColor=none;fillColor=none;fontSize=10;fontFamily=Helvetica;fontColor=#000000;" vertex="1" parent="1">
          <mxGeometry x="291.5" y="450" width="47" height="24" as="geometry" />
        </mxCell>
        <mxCell id="6RNCGOG-WSd5X_5wuMal-46" value="" style="line;strokeWidth=2;direction=south;html=1;labelBackgroundColor=none;fillStyle=solid;strokeColor=#000000;fontFamily=Helvetica;fontSize=6;fontColor=#000000;fillColor=#182E3E;" vertex="1" parent="1">
          <mxGeometry x="280" y="55" width="10" height="20" as="geometry" />
        </mxCell>
        <mxCell id="6RNCGOG-WSd5X_5wuMal-47" value="" style="verticalLabelPosition=bottom;verticalAlign=top;html=1;shadow=0;dashed=0;strokeWidth=1;shape=mxgraph.android.phone2;strokeColor=#FFFFFF;labelBackgroundColor=none;fillColor=#182E3E;fontColor=#FFFFFF;" vertex="1" parent="1">
          <mxGeometry x="430" y="10" width="200" height="440" as="geometry" />
        </mxCell>
        <mxCell id="6RNCGOG-WSd5X_5wuMal-48" value="" style="verticalLabelPosition=bottom;verticalAlign=top;html=1;shadow=0;dashed=0;strokeWidth=1;shape=mxgraph.android.phone2;strokeColor=#FFFFFF;labelBackgroundColor=none;fillColor=#182E3E;fontColor=#FFFFFF;" vertex="1" parent="1">
          <mxGeometry x="642" y="10" width="200" height="440" as="geometry" />
        </mxCell>
        <mxCell id="6RNCGOG-WSd5X_5wuMal-49" value="Отмена" style="text;html=1;align=center;verticalAlign=middle;resizable=0;points=[];autosize=1;strokeColor=none;fillColor=none;fontSize=8;fontFamily=Helvetica;fontColor=#000000;" vertex="1" parent="1">
          <mxGeometry x="440" y="51.85" width="50" height="20" as="geometry" />
        </mxCell>
        <mxCell id="6RNCGOG-WSd5X_5wuMal-50" value="Категория&amp;nbsp;" style="text;html=1;align=center;verticalAlign=middle;resizable=0;points=[];autosize=1;strokeColor=none;fillColor=none;fontSize=12;fontFamily=Helvetica;fontColor=#000000;fontStyle=1" vertex="1" parent="1">
          <mxGeometry x="440" y="75" width="90" height="30" as="geometry" />
        </mxCell>
        <mxCell id="6RNCGOG-WSd5X_5wuMal-51" value="Все объявления&amp;nbsp;" style="rounded=1;whiteSpace=wrap;html=1;labelBackgroundColor=none;strokeColor=#666666;fontFamily=Helvetica;fontSize=7;fontColor=#333333;fillColor=#f5f5f5;" vertex="1" parent="1">
          <mxGeometry x="440" y="105" width="80" height="20" as="geometry" />
        </mxCell>
        <mxCell id="6RNCGOG-WSd5X_5wuMal-52" value="Собаки" style="rounded=1;whiteSpace=wrap;html=1;labelBackgroundColor=none;strokeColor=#666666;fontFamily=Helvetica;fontSize=7;fontColor=#333333;fillColor=#f5f5f5;" vertex="1" parent="1">
          <mxGeometry x="440" y="130" width="80" height="20" as="geometry" />
        </mxCell>
        <mxCell id="6RNCGOG-WSd5X_5wuMal-53" value="12457 &amp;nbsp;результат" style="text;html=1;align=center;verticalAlign=middle;resizable=0;points=[];autosize=1;strokeColor=none;fillColor=none;fontSize=5;fontFamily=Helvetica;fontColor=#000000;" vertex="1" parent="1">
          <mxGeometry x="525" y="105" width="60" height="20" as="geometry" />
        </mxCell>
        <mxCell id="6RNCGOG-WSd5X_5wuMal-54" value="12457 &amp;nbsp;результат" style="text;html=1;align=center;verticalAlign=middle;resizable=0;points=[];autosize=1;strokeColor=none;fillColor=none;fontSize=5;fontFamily=Helvetica;fontColor=#000000;" vertex="1" parent="1">
          <mxGeometry x="525" y="130" width="60" height="20" as="geometry" />
        </mxCell>
        <mxCell id="6RNCGOG-WSd5X_5wuMal-57" value="Кошки" style="rounded=1;whiteSpace=wrap;html=1;labelBackgroundColor=none;strokeColor=#666666;fontFamily=Helvetica;fontSize=7;fontColor=#333333;fillColor=#f5f5f5;" vertex="1" parent="1">
          <mxGeometry x="440" y="155" width="80" height="20" as="geometry" />
        </mxCell>
        <mxCell id="6RNCGOG-WSd5X_5wuMal-58" value="12457 &amp;nbsp;результат" style="text;html=1;align=center;verticalAlign=middle;resizable=0;points=[];autosize=1;strokeColor=none;fillColor=none;fontSize=5;fontFamily=Helvetica;fontColor=#000000;" vertex="1" parent="1">
          <mxGeometry x="525" y="155" width="60" height="20" as="geometry" />
        </mxCell>
        <mxCell id="6RNCGOG-WSd5X_5wuMal-59" value="Овцы" style="rounded=1;whiteSpace=wrap;html=1;labelBackgroundColor=none;strokeColor=#666666;fontFamily=Helvetica;fontSize=7;fontColor=#333333;fillColor=#f5f5f5;" vertex="1" parent="1">
          <mxGeometry x="440" y="180" width="80" height="20" as="geometry" />
        </mxCell>
        <mxCell id="6RNCGOG-WSd5X_5wuMal-60" value="12457 &amp;nbsp;результат" style="text;html=1;align=center;verticalAlign=middle;resizable=0;points=[];autosize=1;strokeColor=none;fillColor=none;fontSize=5;fontFamily=Helvetica;fontColor=#000000;" vertex="1" parent="1">
          <mxGeometry x="525" y="180" width="60" height="20" as="geometry" />
        </mxCell>
        <mxCell id="6RNCGOG-WSd5X_5wuMal-61" value="Коровы" style="rounded=1;whiteSpace=wrap;html=1;labelBackgroundColor=none;strokeColor=#666666;fontFamily=Helvetica;fontSize=7;fontColor=#333333;fillColor=#f5f5f5;" vertex="1" parent="1">
          <mxGeometry x="440" y="205" width="80" height="20" as="geometry" />
        </mxCell>
        <mxCell id="6RNCGOG-WSd5X_5wuMal-62" value="12457 &amp;nbsp;результат" style="text;html=1;align=center;verticalAlign=middle;resizable=0;points=[];autosize=1;strokeColor=none;fillColor=none;fontSize=5;fontFamily=Helvetica;fontColor=#000000;" vertex="1" parent="1">
          <mxGeometry x="525" y="205" width="60" height="20" as="geometry" />
        </mxCell>
        <mxCell id="6RNCGOG-WSd5X_5wuMal-63" value="Лошади" style="rounded=1;whiteSpace=wrap;html=1;labelBackgroundColor=none;strokeColor=#666666;fontFamily=Helvetica;fontSize=7;fontColor=#333333;fillColor=#f5f5f5;" vertex="1" parent="1">
          <mxGeometry x="440" y="230" width="80" height="20" as="geometry" />
        </mxCell>
        <mxCell id="6RNCGOG-WSd5X_5wuMal-64" value="12457 &amp;nbsp;результат" style="text;html=1;align=center;verticalAlign=middle;resizable=0;points=[];autosize=1;strokeColor=none;fillColor=none;fontSize=5;fontFamily=Helvetica;fontColor=#000000;" vertex="1" parent="1">
          <mxGeometry x="525" y="230" width="60" height="20" as="geometry" />
        </mxCell>
        <mxCell id="6RNCGOG-WSd5X_5wuMal-65" value="Корм" style="rounded=1;whiteSpace=wrap;html=1;labelBackgroundColor=none;strokeColor=#666666;fontFamily=Helvetica;fontSize=7;fontColor=#333333;fillColor=#f5f5f5;" vertex="1" parent="1">
          <mxGeometry x="440" y="255" width="80" height="20" as="geometry" />
        </mxCell>
        <mxCell id="6RNCGOG-WSd5X_5wuMal-66" value="12457 &amp;nbsp;результат" style="text;html=1;align=center;verticalAlign=middle;resizable=0;points=[];autosize=1;strokeColor=none;fillColor=none;fontSize=5;fontFamily=Helvetica;fontColor=#000000;" vertex="1" parent="1">
          <mxGeometry x="525" y="255" width="60" height="20" as="geometry" />
        </mxCell>
        <mxCell id="6RNCGOG-WSd5X_5wuMal-67" value="Вет- Аптека" style="rounded=1;whiteSpace=wrap;html=1;labelBackgroundColor=none;strokeColor=#666666;fontFamily=Helvetica;fontSize=7;fontColor=#333333;fillColor=#f5f5f5;" vertex="1" parent="1">
          <mxGeometry x="440" y="280" width="80" height="20" as="geometry" />
        </mxCell>
        <mxCell id="6RNCGOG-WSd5X_5wuMal-68" value="12457 &amp;nbsp;результат" style="text;html=1;align=center;verticalAlign=middle;resizable=0;points=[];autosize=1;strokeColor=none;fillColor=none;fontSize=5;fontFamily=Helvetica;fontColor=#000000;" vertex="1" parent="1">
          <mxGeometry x="525" y="280" width="60" height="20" as="geometry" />
        </mxCell>
        <mxCell id="6RNCGOG-WSd5X_5wuMal-69" value="Деревья" style="rounded=1;whiteSpace=wrap;html=1;labelBackgroundColor=none;strokeColor=#666666;fontFamily=Helvetica;fontSize=7;fontColor=#333333;fillColor=#f5f5f5;" vertex="1" parent="1">
          <mxGeometry x="440" y="306" width="80" height="20" as="geometry" />
        </mxCell>
        <mxCell id="6RNCGOG-WSd5X_5wuMal-70" value="12457 &amp;nbsp;результат" style="text;html=1;align=center;verticalAlign=middle;resizable=0;points=[];autosize=1;strokeColor=none;fillColor=none;fontSize=5;fontFamily=Helvetica;fontColor=#000000;" vertex="1" parent="1">
          <mxGeometry x="525" y="306" width="60" height="20" as="geometry" />
        </mxCell>
        <mxCell id="6RNCGOG-WSd5X_5wuMal-71" value="Кустарник" style="rounded=1;whiteSpace=wrap;html=1;labelBackgroundColor=none;strokeColor=#666666;fontFamily=Helvetica;fontSize=7;fontColor=#333333;fillColor=#f5f5f5;" vertex="1" parent="1">
          <mxGeometry x="440" y="330" width="80" height="20" as="geometry" />
        </mxCell>
        <mxCell id="6RNCGOG-WSd5X_5wuMal-72" value="12457 &amp;nbsp;результат" style="text;html=1;align=center;verticalAlign=middle;resizable=0;points=[];autosize=1;strokeColor=none;fillColor=none;fontSize=5;fontFamily=Helvetica;fontColor=#000000;" vertex="1" parent="1">
          <mxGeometry x="525" y="330" width="60" height="20" as="geometry" />
        </mxCell>
        <mxCell id="6RNCGOG-WSd5X_5wuMal-73" value="Травы" style="rounded=1;whiteSpace=wrap;html=1;labelBackgroundColor=none;strokeColor=#666666;fontFamily=Helvetica;fontSize=7;fontColor=#333333;fillColor=#f5f5f5;" vertex="1" parent="1">
          <mxGeometry x="440" y="354" width="80" height="20" as="geometry" />
        </mxCell>
        <mxCell id="6RNCGOG-WSd5X_5wuMal-74" value="12457 &amp;nbsp;результат" style="text;html=1;align=center;verticalAlign=middle;resizable=0;points=[];autosize=1;strokeColor=none;fillColor=none;fontSize=5;fontFamily=Helvetica;fontColor=#000000;" vertex="1" parent="1">
          <mxGeometry x="525" y="354" width="60" height="20" as="geometry" />
        </mxCell>
        <mxCell id="6RNCGOG-WSd5X_5wuMal-76" value="Удобрение" style="rounded=1;whiteSpace=wrap;html=1;labelBackgroundColor=none;strokeColor=#666666;fontFamily=Helvetica;fontSize=7;fontColor=#333333;fillColor=#f5f5f5;" vertex="1" parent="1">
          <mxGeometry x="440" y="377" width="80" height="20" as="geometry" />
        </mxCell>
        <mxCell id="6RNCGOG-WSd5X_5wuMal-77" value="12457 &amp;nbsp;результат" style="text;html=1;align=center;verticalAlign=middle;resizable=0;points=[];autosize=1;strokeColor=none;fillColor=none;fontSize=5;fontFamily=Helvetica;fontColor=#000000;" vertex="1" parent="1">
          <mxGeometry x="525" y="377" width="60" height="20" as="geometry" />
        </mxCell>
        <mxCell id="6RNCGOG-WSd5X_5wuMal-78" value="Категория" style="text;html=1;align=center;verticalAlign=middle;resizable=0;points=[];autosize=1;strokeColor=none;fillColor=none;fontSize=9;fontFamily=Helvetica;fontColor=#000000;" vertex="1" parent="1">
          <mxGeometry x="493" y="453" width="62" height="22" as="geometry" />
        </mxCell>
        <mxCell id="6RNCGOG-WSd5X_5wuMal-79" value="" style="html=1;verticalLabelPosition=bottom;labelBackgroundColor=#ffffff;verticalAlign=top;shadow=0;dashed=0;strokeWidth=2;shape=mxgraph.ios7.misc.more;strokeColor=#a0a0a0;fillStyle=solid;fontFamily=Helvetica;fontSize=5;fontColor=#000000;fillColor=#182E3E;" vertex="1" parent="1">
          <mxGeometry x="603" y="112" width="5" height="8" as="geometry" />
        </mxCell>
        <mxCell id="6RNCGOG-WSd5X_5wuMal-80" value="" style="html=1;verticalLabelPosition=bottom;labelBackgroundColor=#ffffff;verticalAlign=top;shadow=0;dashed=0;strokeWidth=2;shape=mxgraph.ios7.misc.more;strokeColor=#a0a0a0;fillStyle=solid;fontFamily=Helvetica;fontSize=5;fontColor=#000000;fillColor=#182E3E;" vertex="1" parent="1">
          <mxGeometry x="603" y="138" width="5" height="8" as="geometry" />
        </mxCell>
        <mxCell id="6RNCGOG-WSd5X_5wuMal-81" value="" style="html=1;verticalLabelPosition=bottom;labelBackgroundColor=#ffffff;verticalAlign=top;shadow=0;dashed=0;strokeWidth=2;shape=mxgraph.ios7.misc.more;strokeColor=#a0a0a0;fillStyle=solid;fontFamily=Helvetica;fontSize=5;fontColor=#000000;fillColor=#182E3E;" vertex="1" parent="1">
          <mxGeometry x="603" y="161" width="5" height="8" as="geometry" />
        </mxCell>
        <mxCell id="6RNCGOG-WSd5X_5wuMal-82" value="" style="html=1;verticalLabelPosition=bottom;labelBackgroundColor=#ffffff;verticalAlign=top;shadow=0;dashed=0;strokeWidth=2;shape=mxgraph.ios7.misc.more;strokeColor=#a0a0a0;fillStyle=solid;fontFamily=Helvetica;fontSize=5;fontColor=#000000;fillColor=#182E3E;" vertex="1" parent="1">
          <mxGeometry x="603" y="186" width="5" height="8" as="geometry" />
        </mxCell>
        <mxCell id="6RNCGOG-WSd5X_5wuMal-83" value="" style="html=1;verticalLabelPosition=bottom;labelBackgroundColor=#ffffff;verticalAlign=top;shadow=0;dashed=0;strokeWidth=2;shape=mxgraph.ios7.misc.more;strokeColor=#a0a0a0;fillStyle=solid;fontFamily=Helvetica;fontSize=5;fontColor=#000000;fillColor=#182E3E;" vertex="1" parent="1">
          <mxGeometry x="603" y="211" width="5" height="8" as="geometry" />
        </mxCell>
        <mxCell id="6RNCGOG-WSd5X_5wuMal-84" value="" style="html=1;verticalLabelPosition=bottom;labelBackgroundColor=#ffffff;verticalAlign=top;shadow=0;dashed=0;strokeWidth=2;shape=mxgraph.ios7.misc.more;strokeColor=#a0a0a0;fillStyle=solid;fontFamily=Helvetica;fontSize=5;fontColor=#000000;fillColor=#182E3E;" vertex="1" parent="1">
          <mxGeometry x="603" y="236" width="5" height="8" as="geometry" />
        </mxCell>
        <mxCell id="6RNCGOG-WSd5X_5wuMal-85" value="" style="html=1;verticalLabelPosition=bottom;labelBackgroundColor=#ffffff;verticalAlign=top;shadow=0;dashed=0;strokeWidth=2;shape=mxgraph.ios7.misc.more;strokeColor=#a0a0a0;fillStyle=solid;fontFamily=Helvetica;fontSize=5;fontColor=#000000;fillColor=#182E3E;" vertex="1" parent="1">
          <mxGeometry x="603" y="262" width="5" height="8" as="geometry" />
        </mxCell>
        <mxCell id="6RNCGOG-WSd5X_5wuMal-86" value="" style="html=1;verticalLabelPosition=bottom;labelBackgroundColor=#ffffff;verticalAlign=top;shadow=0;dashed=0;strokeWidth=2;shape=mxgraph.ios7.misc.more;strokeColor=#a0a0a0;fillStyle=solid;fontFamily=Helvetica;fontSize=5;fontColor=#000000;fillColor=#182E3E;" vertex="1" parent="1">
          <mxGeometry x="603" y="286" width="5" height="8" as="geometry" />
        </mxCell>
        <mxCell id="6RNCGOG-WSd5X_5wuMal-87" value="" style="html=1;verticalLabelPosition=bottom;labelBackgroundColor=#ffffff;verticalAlign=top;shadow=0;dashed=0;strokeWidth=2;shape=mxgraph.ios7.misc.more;strokeColor=#a0a0a0;fillStyle=solid;fontFamily=Helvetica;fontSize=5;fontColor=#000000;fillColor=#182E3E;" vertex="1" parent="1">
          <mxGeometry x="603" y="312" width="5" height="8" as="geometry" />
        </mxCell>
        <mxCell id="6RNCGOG-WSd5X_5wuMal-88" value="" style="html=1;verticalLabelPosition=bottom;labelBackgroundColor=#ffffff;verticalAlign=top;shadow=0;dashed=0;strokeWidth=2;shape=mxgraph.ios7.misc.more;strokeColor=#a0a0a0;fillStyle=solid;fontFamily=Helvetica;fontSize=5;fontColor=#000000;fillColor=#182E3E;" vertex="1" parent="1">
          <mxGeometry x="603" y="336" width="5" height="8" as="geometry" />
        </mxCell>
        <mxCell id="6RNCGOG-WSd5X_5wuMal-89" value="" style="html=1;verticalLabelPosition=bottom;labelBackgroundColor=#ffffff;verticalAlign=top;shadow=0;dashed=0;strokeWidth=2;shape=mxgraph.ios7.misc.more;strokeColor=#a0a0a0;fillStyle=solid;fontFamily=Helvetica;fontSize=5;fontColor=#000000;fillColor=#182E3E;" vertex="1" parent="1">
          <mxGeometry x="603" y="360" width="5" height="8" as="geometry" />
        </mxCell>
        <mxCell id="6RNCGOG-WSd5X_5wuMal-90" value="" style="html=1;verticalLabelPosition=bottom;labelBackgroundColor=#ffffff;verticalAlign=top;shadow=0;dashed=0;strokeWidth=2;shape=mxgraph.ios7.misc.more;strokeColor=#a0a0a0;fillStyle=solid;fontFamily=Helvetica;fontSize=5;fontColor=#000000;fillColor=#182E3E;" vertex="1" parent="1">
          <mxGeometry x="603" y="382" width="5" height="8" as="geometry" />
        </mxCell>
        <mxCell id="6RNCGOG-WSd5X_5wuMal-91" value="Каталог" style="text;html=1;align=center;verticalAlign=middle;resizable=0;points=[];autosize=1;strokeColor=none;fillColor=none;fontSize=12;fontFamily=Helvetica;fontColor=#000000;fontStyle=1" vertex="1" parent="1">
          <mxGeometry x="664.5" y="80" width="67" height="26" as="geometry" />
        </mxCell>
        <mxCell id="6RNCGOG-WSd5X_5wuMal-92" value="Долматинец" style="rounded=1;whiteSpace=wrap;html=1;labelBackgroundColor=none;strokeColor=#666666;fontFamily=Helvetica;fontSize=7;fontColor=#333333;fillColor=#f5f5f5;" vertex="1" parent="1">
          <mxGeometry x="658" y="109" width="80" height="20" as="geometry" />
        </mxCell>
        <mxCell id="6RNCGOG-WSd5X_5wuMal-93" value="Авчарка" style="rounded=1;whiteSpace=wrap;html=1;labelBackgroundColor=none;strokeColor=#666666;fontFamily=Helvetica;fontSize=7;fontColor=#333333;fillColor=#f5f5f5;" vertex="1" parent="1">
          <mxGeometry x="658" y="134" width="80" height="20" as="geometry" />
        </mxCell>
        <mxCell id="6RNCGOG-WSd5X_5wuMal-94" value="12457 &amp;nbsp;результат" style="text;html=1;align=center;verticalAlign=middle;resizable=0;points=[];autosize=1;strokeColor=none;fillColor=none;fontSize=5;fontFamily=Helvetica;fontColor=#000000;" vertex="1" parent="1">
          <mxGeometry x="743" y="109" width="60" height="20" as="geometry" />
        </mxCell>
        <mxCell id="6RNCGOG-WSd5X_5wuMal-95" value="12457 &amp;nbsp;результат" style="text;html=1;align=center;verticalAlign=middle;resizable=0;points=[];autosize=1;strokeColor=none;fillColor=none;fontSize=5;fontFamily=Helvetica;fontColor=#000000;" vertex="1" parent="1">
          <mxGeometry x="743" y="134" width="60" height="20" as="geometry" />
        </mxCell>
        <mxCell id="6RNCGOG-WSd5X_5wuMal-96" value="Дог" style="rounded=1;whiteSpace=wrap;html=1;labelBackgroundColor=none;strokeColor=#666666;fontFamily=Helvetica;fontSize=7;fontColor=#333333;fillColor=#f5f5f5;" vertex="1" parent="1">
          <mxGeometry x="658" y="159" width="80" height="20" as="geometry" />
        </mxCell>
        <mxCell id="6RNCGOG-WSd5X_5wuMal-97" value="12457 &amp;nbsp;результат" style="text;html=1;align=center;verticalAlign=middle;resizable=0;points=[];autosize=1;strokeColor=none;fillColor=none;fontSize=5;fontFamily=Helvetica;fontColor=#000000;" vertex="1" parent="1">
          <mxGeometry x="743" y="159" width="60" height="20" as="geometry" />
        </mxCell>
        <mxCell id="6RNCGOG-WSd5X_5wuMal-98" value="Бульдог" style="rounded=1;whiteSpace=wrap;html=1;labelBackgroundColor=none;strokeColor=#666666;fontFamily=Helvetica;fontSize=7;fontColor=#333333;fillColor=#f5f5f5;" vertex="1" parent="1">
          <mxGeometry x="658" y="184" width="80" height="20" as="geometry" />
        </mxCell>
        <mxCell id="6RNCGOG-WSd5X_5wuMal-99" value="12457 &amp;nbsp;результат" style="text;html=1;align=center;verticalAlign=middle;resizable=0;points=[];autosize=1;strokeColor=none;fillColor=none;fontSize=5;fontFamily=Helvetica;fontColor=#000000;" vertex="1" parent="1">
          <mxGeometry x="743" y="184" width="60" height="20" as="geometry" />
        </mxCell>
        <mxCell id="6RNCGOG-WSd5X_5wuMal-100" value="Чихуа хуа" style="rounded=1;whiteSpace=wrap;html=1;labelBackgroundColor=none;strokeColor=#666666;fontFamily=Helvetica;fontSize=7;fontColor=#333333;fillColor=#f5f5f5;" vertex="1" parent="1">
          <mxGeometry x="658" y="209" width="80" height="20" as="geometry" />
        </mxCell>
        <mxCell id="6RNCGOG-WSd5X_5wuMal-101" value="12457 &amp;nbsp;результат" style="text;html=1;align=center;verticalAlign=middle;resizable=0;points=[];autosize=1;strokeColor=none;fillColor=none;fontSize=5;fontFamily=Helvetica;fontColor=#000000;" vertex="1" parent="1">
          <mxGeometry x="743" y="209" width="60" height="20" as="geometry" />
        </mxCell>
        <mxCell id="6RNCGOG-WSd5X_5wuMal-102" value="Лайка" style="rounded=1;whiteSpace=wrap;html=1;labelBackgroundColor=none;strokeColor=#666666;fontFamily=Helvetica;fontSize=7;fontColor=#333333;fillColor=#f5f5f5;" vertex="1" parent="1">
          <mxGeometry x="658" y="234" width="80" height="20" as="geometry" />
        </mxCell>
        <mxCell id="6RNCGOG-WSd5X_5wuMal-103" value="12457 &amp;nbsp;результат" style="text;html=1;align=center;verticalAlign=middle;resizable=0;points=[];autosize=1;strokeColor=none;fillColor=none;fontSize=5;fontFamily=Helvetica;fontColor=#000000;" vertex="1" parent="1">
          <mxGeometry x="743" y="234" width="60" height="20" as="geometry" />
        </mxCell>
        <mxCell id="6RNCGOG-WSd5X_5wuMal-104" value="Симбернар" style="rounded=1;whiteSpace=wrap;html=1;labelBackgroundColor=none;strokeColor=#666666;fontFamily=Helvetica;fontSize=7;fontColor=#333333;fillColor=#f5f5f5;" vertex="1" parent="1">
          <mxGeometry x="658" y="259" width="80" height="20" as="geometry" />
        </mxCell>
        <mxCell id="6RNCGOG-WSd5X_5wuMal-105" value="12457 &amp;nbsp;результат" style="text;html=1;align=center;verticalAlign=middle;resizable=0;points=[];autosize=1;strokeColor=none;fillColor=none;fontSize=5;fontFamily=Helvetica;fontColor=#000000;" vertex="1" parent="1">
          <mxGeometry x="743" y="259" width="60" height="20" as="geometry" />
        </mxCell>
        <mxCell id="6RNCGOG-WSd5X_5wuMal-106" value="Ротвейлер&amp;nbsp;" style="rounded=1;whiteSpace=wrap;html=1;labelBackgroundColor=none;strokeColor=#666666;fontFamily=Helvetica;fontSize=7;fontColor=#333333;fillColor=#f5f5f5;" vertex="1" parent="1">
          <mxGeometry x="658" y="284" width="80" height="20" as="geometry" />
        </mxCell>
        <mxCell id="6RNCGOG-WSd5X_5wuMal-107" value="12457 &amp;nbsp;результат" style="text;html=1;align=center;verticalAlign=middle;resizable=0;points=[];autosize=1;strokeColor=none;fillColor=none;fontSize=5;fontFamily=Helvetica;fontColor=#000000;" vertex="1" parent="1">
          <mxGeometry x="743" y="284" width="60" height="20" as="geometry" />
        </mxCell>
        <mxCell id="6RNCGOG-WSd5X_5wuMal-108" value="Доберман" style="rounded=1;whiteSpace=wrap;html=1;labelBackgroundColor=none;strokeColor=#666666;fontFamily=Helvetica;fontSize=7;fontColor=#333333;fillColor=#f5f5f5;" vertex="1" parent="1">
          <mxGeometry x="658" y="310" width="80" height="20" as="geometry" />
        </mxCell>
        <mxCell id="6RNCGOG-WSd5X_5wuMal-109" value="12457 &amp;nbsp;результат" style="text;html=1;align=center;verticalAlign=middle;resizable=0;points=[];autosize=1;strokeColor=none;fillColor=none;fontSize=5;fontFamily=Helvetica;fontColor=#000000;" vertex="1" parent="1">
          <mxGeometry x="743" y="310" width="60" height="20" as="geometry" />
        </mxCell>
        <mxCell id="6RNCGOG-WSd5X_5wuMal-110" value="Пудель" style="rounded=1;whiteSpace=wrap;html=1;labelBackgroundColor=none;strokeColor=#666666;fontFamily=Helvetica;fontSize=7;fontColor=#333333;fillColor=#f5f5f5;" vertex="1" parent="1">
          <mxGeometry x="658" y="334" width="80" height="20" as="geometry" />
        </mxCell>
        <mxCell id="6RNCGOG-WSd5X_5wuMal-111" value="12457 &amp;nbsp;результат" style="text;html=1;align=center;verticalAlign=middle;resizable=0;points=[];autosize=1;strokeColor=none;fillColor=none;fontSize=5;fontFamily=Helvetica;fontColor=#000000;" vertex="1" parent="1">
          <mxGeometry x="743" y="334" width="60" height="20" as="geometry" />
        </mxCell>
        <mxCell id="6RNCGOG-WSd5X_5wuMal-112" value="Гончая" style="rounded=1;whiteSpace=wrap;html=1;labelBackgroundColor=none;strokeColor=#666666;fontFamily=Helvetica;fontSize=7;fontColor=#333333;fillColor=#f5f5f5;" vertex="1" parent="1">
          <mxGeometry x="658" y="358" width="80" height="20" as="geometry" />
        </mxCell>
        <mxCell id="6RNCGOG-WSd5X_5wuMal-113" value="12457 &amp;nbsp;результат" style="text;html=1;align=center;verticalAlign=middle;resizable=0;points=[];autosize=1;strokeColor=none;fillColor=none;fontSize=5;fontFamily=Helvetica;fontColor=#000000;" vertex="1" parent="1">
          <mxGeometry x="743" y="358" width="60" height="20" as="geometry" />
        </mxCell>
        <mxCell id="6RNCGOG-WSd5X_5wuMal-114" value="Шнапс" style="rounded=1;whiteSpace=wrap;html=1;labelBackgroundColor=none;strokeColor=#666666;fontFamily=Helvetica;fontSize=7;fontColor=#333333;fillColor=#f5f5f5;" vertex="1" parent="1">
          <mxGeometry x="658" y="381" width="80" height="20" as="geometry" />
        </mxCell>
        <mxCell id="6RNCGOG-WSd5X_5wuMal-115" value="12457 &amp;nbsp;результат" style="text;html=1;align=center;verticalAlign=middle;resizable=0;points=[];autosize=1;strokeColor=none;fillColor=none;fontSize=5;fontFamily=Helvetica;fontColor=#000000;" vertex="1" parent="1">
          <mxGeometry x="743" y="381" width="60" height="20" as="geometry" />
        </mxCell>
        <mxCell id="6RNCGOG-WSd5X_5wuMal-116" value="" style="html=1;verticalLabelPosition=bottom;labelBackgroundColor=#ffffff;verticalAlign=top;shadow=0;dashed=0;strokeWidth=2;shape=mxgraph.ios7.misc.more;strokeColor=#a0a0a0;fillStyle=solid;fontFamily=Helvetica;fontSize=5;fontColor=#000000;fillColor=#182E3E;" vertex="1" parent="1">
          <mxGeometry x="821" y="116" width="5" height="8" as="geometry" />
        </mxCell>
        <mxCell id="6RNCGOG-WSd5X_5wuMal-117" value="" style="html=1;verticalLabelPosition=bottom;labelBackgroundColor=#ffffff;verticalAlign=top;shadow=0;dashed=0;strokeWidth=2;shape=mxgraph.ios7.misc.more;strokeColor=#a0a0a0;fillStyle=solid;fontFamily=Helvetica;fontSize=5;fontColor=#000000;fillColor=#182E3E;" vertex="1" parent="1">
          <mxGeometry x="821" y="142" width="5" height="8" as="geometry" />
        </mxCell>
        <mxCell id="6RNCGOG-WSd5X_5wuMal-118" value="" style="html=1;verticalLabelPosition=bottom;labelBackgroundColor=#ffffff;verticalAlign=top;shadow=0;dashed=0;strokeWidth=2;shape=mxgraph.ios7.misc.more;strokeColor=#a0a0a0;fillStyle=solid;fontFamily=Helvetica;fontSize=5;fontColor=#000000;fillColor=#182E3E;" vertex="1" parent="1">
          <mxGeometry x="821" y="165" width="5" height="8" as="geometry" />
        </mxCell>
        <mxCell id="6RNCGOG-WSd5X_5wuMal-119" value="" style="html=1;verticalLabelPosition=bottom;labelBackgroundColor=#ffffff;verticalAlign=top;shadow=0;dashed=0;strokeWidth=2;shape=mxgraph.ios7.misc.more;strokeColor=#a0a0a0;fillStyle=solid;fontFamily=Helvetica;fontSize=5;fontColor=#000000;fillColor=#182E3E;" vertex="1" parent="1">
          <mxGeometry x="821" y="190" width="5" height="8" as="geometry" />
        </mxCell>
        <mxCell id="6RNCGOG-WSd5X_5wuMal-120" value="" style="html=1;verticalLabelPosition=bottom;labelBackgroundColor=#ffffff;verticalAlign=top;shadow=0;dashed=0;strokeWidth=2;shape=mxgraph.ios7.misc.more;strokeColor=#a0a0a0;fillStyle=solid;fontFamily=Helvetica;fontSize=5;fontColor=#000000;fillColor=#182E3E;" vertex="1" parent="1">
          <mxGeometry x="821" y="215" width="5" height="8" as="geometry" />
        </mxCell>
        <mxCell id="6RNCGOG-WSd5X_5wuMal-121" value="" style="html=1;verticalLabelPosition=bottom;labelBackgroundColor=#ffffff;verticalAlign=top;shadow=0;dashed=0;strokeWidth=2;shape=mxgraph.ios7.misc.more;strokeColor=#a0a0a0;fillStyle=solid;fontFamily=Helvetica;fontSize=5;fontColor=#000000;fillColor=#182E3E;" vertex="1" parent="1">
          <mxGeometry x="821" y="240" width="5" height="8" as="geometry" />
        </mxCell>
        <mxCell id="6RNCGOG-WSd5X_5wuMal-122" value="" style="html=1;verticalLabelPosition=bottom;labelBackgroundColor=#ffffff;verticalAlign=top;shadow=0;dashed=0;strokeWidth=2;shape=mxgraph.ios7.misc.more;strokeColor=#a0a0a0;fillStyle=solid;fontFamily=Helvetica;fontSize=5;fontColor=#000000;fillColor=#182E3E;" vertex="1" parent="1">
          <mxGeometry x="821" y="266" width="5" height="8" as="geometry" />
        </mxCell>
        <mxCell id="6RNCGOG-WSd5X_5wuMal-123" value="" style="html=1;verticalLabelPosition=bottom;labelBackgroundColor=#ffffff;verticalAlign=top;shadow=0;dashed=0;strokeWidth=2;shape=mxgraph.ios7.misc.more;strokeColor=#a0a0a0;fillStyle=solid;fontFamily=Helvetica;fontSize=5;fontColor=#000000;fillColor=#182E3E;" vertex="1" parent="1">
          <mxGeometry x="821" y="290" width="5" height="8" as="geometry" />
        </mxCell>
        <mxCell id="6RNCGOG-WSd5X_5wuMal-124" value="" style="html=1;verticalLabelPosition=bottom;labelBackgroundColor=#ffffff;verticalAlign=top;shadow=0;dashed=0;strokeWidth=2;shape=mxgraph.ios7.misc.more;strokeColor=#a0a0a0;fillStyle=solid;fontFamily=Helvetica;fontSize=5;fontColor=#000000;fillColor=#182E3E;" vertex="1" parent="1">
          <mxGeometry x="821" y="316" width="5" height="8" as="geometry" />
        </mxCell>
        <mxCell id="6RNCGOG-WSd5X_5wuMal-125" value="" style="html=1;verticalLabelPosition=bottom;labelBackgroundColor=#ffffff;verticalAlign=top;shadow=0;dashed=0;strokeWidth=2;shape=mxgraph.ios7.misc.more;strokeColor=#a0a0a0;fillStyle=solid;fontFamily=Helvetica;fontSize=5;fontColor=#000000;fillColor=#182E3E;" vertex="1" parent="1">
          <mxGeometry x="821" y="340" width="5" height="8" as="geometry" />
        </mxCell>
        <mxCell id="6RNCGOG-WSd5X_5wuMal-126" value="" style="html=1;verticalLabelPosition=bottom;labelBackgroundColor=#ffffff;verticalAlign=top;shadow=0;dashed=0;strokeWidth=2;shape=mxgraph.ios7.misc.more;strokeColor=#a0a0a0;fillStyle=solid;fontFamily=Helvetica;fontSize=5;fontColor=#000000;fillColor=#182E3E;" vertex="1" parent="1">
          <mxGeometry x="821" y="364" width="5" height="8" as="geometry" />
        </mxCell>
        <mxCell id="6RNCGOG-WSd5X_5wuMal-127" value="" style="html=1;verticalLabelPosition=bottom;labelBackgroundColor=#ffffff;verticalAlign=top;shadow=0;dashed=0;strokeWidth=2;shape=mxgraph.ios7.misc.more;strokeColor=#a0a0a0;fillStyle=solid;fontFamily=Helvetica;fontSize=5;fontColor=#000000;fillColor=#182E3E;" vertex="1" parent="1">
          <mxGeometry x="821" y="386" width="5" height="8" as="geometry" />
        </mxCell>
        <mxCell id="6RNCGOG-WSd5X_5wuMal-130" value="" style="shape=singleArrow;direction=west;whiteSpace=wrap;html=1;labelBackgroundColor=none;fillStyle=solid;strokeColor=#666666;strokeWidth=3;fontFamily=Helvetica;fontSize=6;fontColor=#333333;fillColor=#f5f5f5;" vertex="1" parent="1">
          <mxGeometry x="658" y="61.85" width="15" height="10" as="geometry" />
        </mxCell>
        <mxCell id="6RNCGOG-WSd5X_5wuMal-131" value="Все собаки" style="text;html=1;align=center;verticalAlign=middle;resizable=0;points=[];autosize=1;strokeColor=none;fillColor=none;fontSize=6;fontFamily=Helvetica;fontColor=#000000;" vertex="1" parent="1">
          <mxGeometry x="754" y="84" width="50" height="19" as="geometry" />
        </mxCell>
        <mxCell id="6RNCGOG-WSd5X_5wuMal-133" value="Каталог" style="text;html=1;align=center;verticalAlign=middle;resizable=0;points=[];autosize=1;strokeColor=none;fillColor=none;fontSize=10;fontFamily=Helvetica;fontColor=#000000;" vertex="1" parent="1">
          <mxGeometry x="712" y="456" width="56" height="24" as="geometry" />
        </mxCell>
      </root>
    </mxGraphModel>
  </diagram>
</mxfile>
